<svg xmlns="http://www.w3.org/2000/svg" xmlns:xlink="http://www.w3.org/1999/xlink" version="1.1" x="0px" y="0px" viewBox="0 0 36 45" style="enable-background:new 0 0 36 36;" xml:space="preserve"><style type="text/css">
	.st0{fill:#fff;}
</style><g><path class="st0" d="M32.2,7.9v20.2c0,2.1-1.7,3.8-3.8,3.8h-13c-2.1,0-3.8-1.7-3.8-3.8v-3.3l2.8,0.6V28c0,0.6,0.5,1.1,1.1,1.1h12.8   c0.6,0,1.1-0.5,1.1-1.1V8.1c0-0.6-0.5-1.1-1.1-1.1H15.5c-0.6,0-1.1,0.5-1.1,1.1v7.5l-2.8-0.2v-2.5c-5.6,2.6-4.3,3.9-1.2,4.6   c0.4,0.1,0.8,0.2,1.2,0.2c0.9,0.1,1.9,0.2,2.8,0.3c0.6,0.1,1.2,0.1,1.8,0.1c2,0.1,3.5,0.1,3.5,0.1v-3.1c0-0.5,0.6-0.4,0.8-0.2   l5.8,4l2.3,1.6c0.2,0.2,0.2,0.5,0,0.8l-2.3,1.6l-2.8,2l-2.9,2c-0.1,0.1-0.3,0.2-0.4,0.2c-0.1,0-0.4,0-0.4-0.3v-2.5   c-1.5-0.3-2.9-0.5-4.2-0.8c-0.4-0.1-0.7-0.2-1.1-0.2c-1-0.2-2-0.5-2.8-0.7c-0.7-0.2-1.3-0.4-1.9-0.6c-14.4-5.1,1.9-11.1,1.9-11.1   V7.9c0-2.1,1.7-3.8,3.8-3.8h13C30.5,4.1,32.2,5.8,32.2,7.9z"/></g><text x="0" y="51" fill="#000000" font-size="5px" font-weight="bold" font-family="'Helvetica Neue', Helvetica, Arial-Unicode, Arial, Sans-serif">Created by Nathan Smith</text><text x="0" y="56" fill="#fff" font-size="5px" font-weight="bold" font-family="'Helvetica Neue', Helvetica, Arial-Unicode, Arial, Sans-serif">from the Noun Project</text></svg>